<svg xmlns="http://www.w3.org/2000/svg" xmlns:xlink="http://www.w3.org/1999/xlink" width="285.065" height="70.644" viewBox="0 0 285.065 70.644"><defs><style>.a{fill:none;clip-rule:evenodd;}.b{fill:#1fbad6;}.c{fill:#444;}.d{clip-path:url(#a);}.e{fill:url(#b);}.f{clip-path:url(#c);}.g{fill:url(#d);}.h{clip-path:url(#e);}.i{fill:url(#f);}.j{clip-path:url(#g);}.k{fill:url(#h);}</style><clipPath id="a"><path class="a" d="M-171.107,480.384a5.7,5.7,0,0,0-3.759,1.509V480.64h-3.81V494.7h3.81v-7.441c-.077-3.068,1.636-3.707,2.685-3.707,1.482,0,2.71.665,2.71,2.839V494.7h3.913v-8.309C-165.559,482.736-167.043,480.384-171.107,480.384Zm-18.335,3.349a3.849,3.849,0,0,1,3.861,3.963,3.878,3.878,0,0,1-3.861,4.016A3.834,3.834,0,0,1-193.3,487.7,3.882,3.882,0,0,1-189.442,483.733Zm0,11.3a7.531,7.531,0,0,0,7.672-7.34,7.542,7.542,0,0,0-7.672-7.312,7.5,7.5,0,0,0-7.62,7.312A7.485,7.485,0,0,0-189.442,495.037Zm-14.576-.333h3.836V480.666h-3.836ZM-200,477.086a2.079,2.079,0,0,0-2.1-2.046,2.109,2.109,0,0,0-2.149,2.046,2.114,2.114,0,0,0,2.149,2.071A2.085,2.085,0,0,0-200,477.086Zm-13.477,3.3a5.691,5.691,0,0,0-3.758,1.509V480.64h-3.811V494.7h3.811v-7.441c-.077-3.068,1.636-3.707,2.684-3.707,1.484,0,2.711.665,2.711,2.839V494.7h3.913v-8.309C-207.929,482.736-209.413,480.384-213.479,480.384Zm-19.894,14.652c5.065,0,8.337-3.12,8.337-7.9v-11.1h-4.04v11.1a4.129,4.129,0,0,1-4.3,4.424,4.14,4.14,0,0,1-4.346-4.424v-11.1h-4.04v11.1C-241.759,491.917-238.461,495.037-233.373,495.037Z" transform="translate(241.759 -475.04)"/></clipPath><linearGradient id="b" x1="0.522" y1="-0.035" x2="0.483" y2="0.908" gradientUnits="objectBoundingBox"><stop offset="0" stop-color="#1fbad6"/><stop offset="1" stop-color="#197b8c"/></linearGradient><clipPath id="c"><path class="a" d="M-286.869,498.491c.817.3,29.913,21.863,33.45,24.547,2.547,1.93,3.134,1.349,7.814,1.349,2.875,0,6.314.169,9.12-.044a29.416,29.416,0,0,0-2.836-2.22l-39.2-29.353c-.542-.413-.928-.794-1.5-1.182-1.308-.887-6.543-5.1-7.381-5.421Z" transform="translate(287.405 -486.167)"/></clipPath><linearGradient id="d" x1="0.591" y1="0.063" x2="0.438" y2="0.796" xlink:href="#b"/><clipPath id="e"><path class="a" d="M-289.546,486.322l0-4.441c5.258-.1,10.594-.012,15.852-.012,5.39,0,9.714-.775,13.64,2.211,6.686,5.084,4.4,15.97-3.778,18.155l8.418,6.112c2.056-.891,4.05-3.6,5.03-4.952a20.256,20.256,0,0,0,3.364-8.87c.848-7.887-3.08-14.438-6.989-17.38a19.877,19.877,0,0,0-3.645-2.381,18.881,18.881,0,0,0-4.627-1.651c-3.67-.809-19.312-.455-24.14-.455-3.932,0-8.436-.2-12.3.036l0,13.629Z" transform="translate(298.721 -472.577)"/></clipPath><linearGradient id="f" x1="0.626" y1="0.055" x2="0.396" y2="0.866" xlink:href="#b"/><clipPath id="g"><path class="a" d="M-275.6,498.612l28.461,21.311a21.463,21.463,0,0,1,2.06,1.611c-2.037.155-4.534.033-6.621.033-3.4,0-3.825.421-5.672-.981-2.569-1.949-23.691-17.6-24.285-17.82h-.587c-.592.218-21.716,15.871-24.285,17.82-1.849,1.4-2.274.981-5.672.981-2.087,0-4.585.122-6.621-.033a21.616,21.616,0,0,1,2.058-1.611l28.463-21.311c.392-.3.675-.576,1.089-.859.879-.6,4.2-3.256,5.17-3.837a.092.092,0,1,1,.184,0c.975.581,4.291,3.242,5.17,3.837C-276.274,498.036-275.992,498.313-275.6,498.612Z" transform="translate(318.822 -493.824)"/></clipPath><linearGradient id="h" x1="0.524" y1="0.041" x2="0.484" y2="0.813" xlink:href="#b"/></defs><g transform="translate(318.822 -472.577)"><path class="b" d="M-79.555,524.15A.51.51,0,0,0-79,524.7a.506.506,0,0,0,.544-.555.5.5,0,0,0-.544-.544.5.5,0,0,0-.555.544m-6.01-1.252c.011,1.186,1.219,1.85,2.667,1.807,1.666,0,2.438-.817,2.449-1.611.011-1.012-.706-1.546-2.427-1.787-1.166-.162-1.71-.523-1.7-1.056.033-.576.61-.893,1.536-.893.708.011,1.579.262,1.579,1.122h.763c-.033-1.089-.948-1.775-2.3-1.8-1.339,0-2.231.6-2.3,1.557s.665,1.536,2.3,1.765c1.7.239,1.743.773,1.754.97,0,.924-.948,1.045-1.688,1.056-1.579,0-1.872-.861-1.894-1.133Zm-5.9-1.547c0-1.219.849-1.916,2.179-1.916a2.231,2.231,0,0,1,1.654.577,1.741,1.741,0,0,1,.436,1.371h-4.269Zm2.179,3.354a3.079,3.079,0,0,0,2.482-1.024l-.512-.522a2.52,2.52,0,0,1-1.971.806c-1.351,0-2.179-.675-2.179-1.9v-.044H-86.5a3,3,0,0,0-.555-2.46,2.892,2.892,0,0,0-2.231-.861,2.76,2.76,0,0,0-3.006,3A2.76,2.76,0,0,0-89.288,524.7Zm-7.274-5.259a1.991,1.991,0,0,1,2.189,2.253,1.987,1.987,0,0,1-2.189,2.255,1.986,1.986,0,0,1-2.189-2.255A1.99,1.99,0,0,1-96.562,519.446Zm-.066,5.27a2.919,2.919,0,0,0,2.2-.839l.163.784h.61v-8.068h-.784v2.929a2.9,2.9,0,0,0-2.189-.828,2.727,2.727,0,0,0-2.94,3A2.731,2.731,0,0,0-96.628,524.716Zm-8.972-3.365c0-1.219.849-1.916,2.178-1.916a2.232,2.232,0,0,1,1.655.577,1.745,1.745,0,0,1,.435,1.371H-105.6Zm2.178,3.354a3.079,3.079,0,0,0,2.482-1.024l-.512-.522a2.52,2.52,0,0,1-1.971.806c-1.349,0-2.178-.675-2.178-1.9v-.044h4.965a3,3,0,0,0-.554-2.46,2.9,2.9,0,0,0-2.233-.861,2.759,2.759,0,0,0-3,3A2.759,2.759,0,0,0-103.422,524.7Zm-9.789-2.458c0,1.847.959,2.458,2.418,2.458a3.058,3.058,0,0,0,2.209-.828l.174.784h.621v-5.923h-.784v3.337a1.7,1.7,0,0,1-.717,1.488,2.5,2.5,0,0,1-1.362.4,1.974,1.974,0,0,1-1.329-.444,2.149,2.149,0,0,1-.446-1.5v-3.283h-.784Zm-6.543-.549a1.981,1.981,0,0,1,2.189-2.253,1.978,1.978,0,0,1,2.176,2.253,1.983,1.983,0,0,1-2.176,2.255A1.986,1.986,0,0,1-119.754,521.7Zm-.731-2.961v8.134h.784v-3a2.932,2.932,0,0,0,2.2.828,2.722,2.722,0,0,0,2.94-3.006,2.721,2.721,0,0,0-2.94-3,2.936,2.936,0,0,0-2.209.828l-.154-.784Zm-7.685,5.085-1.6,3.049h.838l4.28-8.134h-.926l-2.167,4.29-2.178-4.29h-.926Zm-11.5-.926c.011,1.186,1.221,1.85,2.669,1.807,1.665,0,2.438-.817,2.449-1.611.011-1.012-.708-1.546-2.429-1.787-1.164-.162-1.709-.523-1.7-1.056.033-.576.609-.893,1.535-.893.708.011,1.58.262,1.58,1.122h.761c-.033-1.089-.948-1.775-2.3-1.8-1.34,0-2.233.6-2.3,1.557s.664,1.536,2.3,1.765c1.7.239,1.742.773,1.753.97,0,.924-.946,1.045-1.687,1.056-1.578,0-1.873-.861-1.9-1.133Zm-5.9-1.547c0-1.219.849-1.916,2.178-1.916a2.232,2.232,0,0,1,1.655.577,1.746,1.746,0,0,1,.435,1.371h-4.268Zm2.178,3.354a3.079,3.079,0,0,0,2.482-1.024l-.512-.522a2.52,2.52,0,0,1-1.971.806c-1.351,0-2.178-.675-2.178-1.9v-.044h4.966a3,3,0,0,0-.555-2.46,2.9,2.9,0,0,0-2.233-.861,2.76,2.76,0,0,0-3.006,3A2.76,2.76,0,0,0-143.393,524.7Zm-6.849,0a2.567,2.567,0,0,0,2.82-2.058h-.816a1.822,1.822,0,0,1-1.993,1.318,1.973,1.973,0,0,1-2.145-2.266,1.973,1.973,0,0,1,2.145-2.264,1.814,1.814,0,0,1,1.993,1.307h.816a2.568,2.568,0,0,0-2.82-2.047,2.73,2.73,0,0,0-2.939,3A2.731,2.731,0,0,0-150.242,524.7Zm-8.972-3.354c0-1.219.849-1.916,2.178-1.916a2.226,2.226,0,0,1,1.654.577,1.741,1.741,0,0,1,.436,1.371h-4.268Zm2.178,3.354a3.079,3.079,0,0,0,2.482-1.024l-.512-.522a2.52,2.52,0,0,1-1.971.806c-1.351,0-2.178-.675-2.178-1.9v-.044h4.965a3,3,0,0,0-.555-2.46,2.89,2.89,0,0,0-2.231-.861,2.759,2.759,0,0,0-3,3A2.759,2.759,0,0,0-157.036,524.7Zm-5.989-.044v-3.2a1.833,1.833,0,0,1,.719-1.633,1.913,1.913,0,0,1,1.48-.3v-.784a1.185,1.185,0,0,0-.358-.044,2.1,2.1,0,0,0-1.851.817l-.152-.773h-.621v5.923Zm-7.153-3.311c0-1.219.849-1.916,2.178-1.916a2.231,2.231,0,0,1,1.654.577,1.746,1.746,0,0,1,.436,1.371h-4.268ZM-168,524.7a3.079,3.079,0,0,0,2.482-1.024l-.513-.522a2.515,2.515,0,0,1-1.969.806c-1.351,0-2.178-.675-2.178-1.9v-.044h4.965a3,3,0,0,0-.555-2.46,2.892,2.892,0,0,0-2.231-.861,2.76,2.76,0,0,0-3.006,3A2.76,2.76,0,0,0-168,524.7Zm-14.068-5.967v5.923h.783v-3.283a1.932,1.932,0,0,1,.719-1.543,2.285,2.285,0,0,1,1.285-.4,1.786,1.786,0,0,1,1.23.444,2.144,2.144,0,0,1,.447,1.5v3.283h.783v-3.283a1.859,1.859,0,0,1,.719-1.543,2.377,2.377,0,0,1,1.285-.4,1.792,1.792,0,0,1,1.232.444,2.121,2.121,0,0,1,.435,1.5v3.283h.784v-3.51a2.178,2.178,0,0,0-2.4-2.458,2.87,2.87,0,0,0-2.352,1.088,2.177,2.177,0,0,0-2.112-1.088,2.786,2.786,0,0,0-2.048.817l-.174-.773Zm-7.633.708a1.986,1.986,0,0,1,2.189,2.253,1.991,1.991,0,0,1-2.189,2.255,1.991,1.991,0,0,1-2.189-2.255A1.991,1.991,0,0,1-189.7,519.446Zm-3,2.253a2.75,2.75,0,0,0,3,3.006,2.749,2.749,0,0,0,3-3.006,2.749,2.749,0,0,0-3-3A2.749,2.749,0,0,0-192.707,521.7Zm-4.955,2.266V517.04h-.816v7.621h5.259v-.7Z" transform="translate(44.698 16.349)"/><path class="c" d="M-103.807,493.4h-7.667l-7.626,11.124-7.543-11.124h-7.668l11.937,17.082V520.93h6.548V510.484Z" transform="translate(68.532 7.735)"/><path class="c" d="M-130.094,498.54v-5.166h-24.2v5.166h8.828v22.4h6.59v-22.4Z" transform="translate(61.108 7.724)"/><path class="c" d="M-147.576,515.774h-15.874v-22.4h-6.59V520.94h22.464Z" transform="translate(55.261 7.724)"/><path class="c" d="M-197.855,521.175h7.212l2.32-4.223h14.134l2.4,4.223h7.171l-16.62-28.434Zm12.765-9.315,3.855-7.2,3.9,7.2Z" transform="translate(44.93 7.489)"/><path class="c" d="M-211.385,498.54h16.413v-5.166h-22.962V520.94h22.962v-5.166h-16.413v-5.883h14.507v-5.2h-14.507Z" transform="translate(37.472 7.724)"/><path class="c" d="M-235.252,520.94v-8.6h4.476c2.486,3.017,4.766,5.77,7.253,8.6h7.832c-2.445-2.942-5.222-6.259-7.832-9.239a9.271,9.271,0,0,0,6.174-8.748c0-5.657-4.434-9.578-10.941-9.578h-13.47V520.94Zm0-13.764V498.54h6.963a4.1,4.1,0,0,1,4.435,4.412,4.239,4.239,0,0,1-4.435,4.224Z" transform="translate(28.623 7.725)"/><g transform="translate(-213.136 475.955)"><g class="d"><rect class="e" width="76.2" height="19.997" transform="translate(0 0)"/></g></g><g transform="translate(-275.736 491.215)"><g class="f"><rect class="g" width="50.92" height="38.801" transform="translate(0 0)"/></g></g><g transform="translate(-291.255 472.577)"><g class="h"><rect class="i" width="52.545" height="36.043" transform="translate(0 -0.273)"/></g></g><g transform="translate(-318.822 501.715)"><g class="j"><rect class="k" width="73.743" height="28.195" transform="translate(0 -0.031)"/></g></g></g></svg>